<?xml version="1.0" encoding="utf-8"?>
<!-- Generator: Adobe Illustrator 23.0.2, SVG Export Plug-In . SVG Version: 6.00 Build 0)  -->
<svg version="1.1" id="Layer_2" xmlns="http://www.w3.org/2000/svg" xmlns:xlink="http://www.w3.org/1999/xlink" x="0px" y="0px"
	 viewBox="0 0 218.8 204.8" style="enable-background:new 0 0 218.8 204.8;" xml:space="preserve">
<style type="text/css">
	.st0{fill:#C7D1EB;}
	.st1{fill:#BCBEC0;stroke:#6D6E71;stroke-width:2;stroke-miterlimit:10;}
	.st2{fill:#A7A9AC;stroke:#58595B;stroke-miterlimit:10;}
	.st3{fill:none;stroke:#EE3224;stroke-width:3;stroke-miterlimit:10;}
	.st4{fill:#EE3224;}
	.st5{fill:none;stroke:#2B3990;stroke-miterlimit:10;}
	.st6{fill:#2B3990;}
	.st7{fill:none;}
	.st8{fill:#414042;}
	.st9{font-family:'Helvetica';}
	.st10{font-size:10px;}
	.st11{font-family:'Helvetica-Bold';}
	.st12{font-size:12px;}
	.st13{fill:#808285;}
	.st14{font-size:6px;}
	.st15{font-size:5px;}
	.st16{font-family:'Times-Italic';}
	.st17{font-size:15px;}
	.st18{font-family:'Times-Roman';}
	.st19{font-size:11px;}
	.st20{fill:#FFFFFF;stroke:#808285;stroke-width:0.75;stroke-miterlimit:10;}
	.st21{fill:#BE1E2D;}
	.st22{fill:#A7A9AC;stroke:#6D6E71;stroke-width:0.5;stroke-miterlimit:10;}
	.st23{fill:#BCBEC0;stroke:#6D6E71;stroke-width:0.5;stroke-miterlimit:10;}
	.st24{fill:none;stroke:#006838;stroke-miterlimit:10;}
	.st25{fill:#006838;}
</style>
<rect x="47.6" y="36.9" class="st0" width="90.9" height="138.7"/>
<path class="st1" d="M131.1,28.2v134.5c0,3.2-2.6,5.8-5.8,5.8H58.6c-3.2,0-5.8-2.6-5.8-5.8V28.2c0-3.2-2.6-5.8-5.8-5.8h-0.3
	c-3.2,0-5.8,2.6-5.8,5.8v148c0,3.2,2.6,5.8,5.8,5.8h90c3.2,0,5.8-2.6,5.8-5.8v-148c0-3.2-2.6-5.8-5.8-5.8h0
	C133.7,22.5,131.1,25.1,131.1,28.2z"/>
<path class="st1" d="M149.3,27.2h-116c-1.6,0-2.9-1.3-2.9-2.9v-7.7c0-1.6,1.3-2.9,2.9-2.9h116c1.6,0,2.9,1.3,2.9,2.9v7.7
	C152.1,26,150.8,27.2,149.3,27.2z"/>
<path class="st2" d="M99,124.1H83.7c-2.3,0-4.2-1.9-4.2-4.2V92.5c0-2.3,1.9-4.2,4.2-4.2H99c2.3,0,4.2,1.9,4.2,4.2v27.4
	C103.1,122.2,101.3,124.1,99,124.1z"/>
<path class="st2" d="M102.7,97.5H80.1c-1.3,0-2.3-1.1-2.3-2.3v-6.1c0-1.3,1.1-2.3,2.3-2.3h22.7c1.3,0,2.3,1.1,2.3,2.3v6.1
	C105.1,96.5,104,97.5,102.7,97.5z"/>
<g>
	<g>
		<line class="st3" x1="91.6" y1="107.4" x2="91.6" y2="74.5"/>
		<g>
			<polygon class="st4" points="91.6,66.9 96,77.6 91.6,75.1 87.2,77.6 			"/>
		</g>
	</g>
</g>
<g>
	<g>
		<polyline class="st5" points="58.4,53.9 31.3,53.9 31.3,87.6 59.2,87.6 		"/>
		<g>
			<polygon class="st6" points="63.3,53.9 56.4,51.1 58,53.9 56.4,56.8 			"/>
		</g>
		<g>
			<polygon class="st6" points="64.1,87.6 57.2,90.5 58.8,87.6 57.2,84.8 			"/>
		</g>
	</g>
</g>
<line class="st5" x1="31.1" y1="70.8" x2="20.8" y2="70.8"/>
<rect x="160.8" y="48.3" class="st7" width="49.2" height="27"/>
<text transform="matrix(1 0 0 1 160.7945 55.4958)"><tspan x="0" y="0" class="st8 st9 st10">adiabatic</tspan><tspan x="0" y="9" class="st8 st9 st10">walls</tspan></text>
<rect x="159.8" y="89" class="st7" width="35.3" height="13.5"/>
<text transform="matrix(1 0 0 1 159.7945 96.1823)" class="st8 st9 st10">system</text>
<rect x="159.8" y="123.5" class="st7" width="65.5" height="12.6"/>
<text transform="matrix(1 0 0 1 159.7945 130.6957)" class="st8 st9 st10">thermometer</text>
<rect x="159.8" y="152.1" class="st7" width="65.5" height="12.6"/>
<text transform="matrix(1 0 0 1 159.7945 159.2582)" class="st8 st9 st10">stirrer</text>
<rect x="39.2" y="190.9" class="st7" width="137.4" height="14.4"/>
<text transform="matrix(1 0 0 1 39.1981 201.0108)" class="st8 st11 st12">Bomb Calorimeter</text>
<rect x="177.5" y="195.6" class="st7" width="40.2" height="6.6"/>
<text transform="matrix(1 0 0 1 177.4724 199.9527)"><tspan x="0" y="0" class="st13 st9 st14">©</tspan><tspan x="4.4" y="0" class="st13 st9 st15"> 2019 </tspan><tspan x="18.3" y="0" class="st13 st9 st14">mccord</tspan></text>
<rect x="78.9" y="136.6" class="st7" width="29.8" height="12.3"/>
<text transform="matrix(1 0 0 1 78.9341 143.7704)" class="st8 st9 st10">water</text>
<rect x="82.5" y="48.3" class="st7" width="24.2" height="19.9"/>
<text transform="matrix(1 0 0 1 82.4879 58.5028)"><tspan x="0" y="0" class="st8 st16 st17">q</tspan><tspan x="6.6" y="4" class="st8 st18 st19">cal</tspan></text>
<rect x="2.6" y="65.7" class="st7" width="19.4" height="13.5"/>
<text transform="matrix(1 0 0 1 2.6431 75.2737)"><tspan x="0" y="0" class="st8 st18 st12">∆</tspan><tspan x="9.4" y="0" class="st8 st16 st12">T</tspan></text>
<path class="st20" d="M69.5,143.2V2.6h-3.8v140.6c-0.8,0.6-1.3,1.6-1.3,2.7v7.7c0,1.9,1.4,3.4,3.1,3.4h0.1c1.7,0,3.1-1.5,3.1-3.4
	v-7.7C70.7,144.8,70.2,143.8,69.5,143.2z"/>
<path class="st21" d="M68.2,146.2V53H67v93.2c-0.2,0.4-0.4,1-0.4,1.6v4.7c0,1.1,0.4,2,1,2h0c0.5,0,1-0.9,1-2v-4.7
	C68.6,147.2,68.4,146.6,68.2,146.2z"/>
<ellipse class="st22" cx="111.3" cy="151.7" rx="6.1" ry="1.3"/>
<ellipse class="st22" cx="121" cy="151.7" rx="6.1" ry="1.3"/>
<path class="st23" d="M116,155.8h-0.6c-0.5,0-1-0.9-1-2V4.2h2.6v149.5C117,154.9,116.6,155.8,116,155.8z"/>
<g>
	<g>
		<line class="st24" x1="158.1" y1="93.7" x2="94.8" y2="114.7"/>
		<g>
			<path class="st25" d="M94.3,112.9c-1,0.3-1.5,1.4-1.2,2.4c0.3,1,1.4,1.5,2.4,1.2c1-0.3,1.5-1.4,1.2-2.4S95.3,112.6,94.3,112.9z"
				/>
		</g>
	</g>
</g>
<g>
	<g>
		<line class="st24" x1="158.1" y1="127.1" x2="67.3" y2="131.8"/>
		<g>
			<path class="st25" d="M67.3,129.9c-1,0.1-1.8,0.9-1.8,2c0.1,1,0.9,1.8,2,1.8c1-0.1,1.8-0.9,1.8-2
				C69.2,130.6,68.3,129.9,67.3,129.9z"/>
		</g>
	</g>
</g>
<g>
	<g>
		<line class="st24" x1="158.1" y1="155.6" x2="115.9" y2="145"/>
		<g>
			<path class="st25" d="M116.5,143.2c-1-0.3-2,0.4-2.3,1.4c-0.3,1,0.4,2,1.4,2.3c1,0.3,2-0.4,2.3-1.4
				C118.1,144.4,117.5,143.4,116.5,143.2z"/>
		</g>
	</g>
</g>
<g>
	<g>
		<line class="st24" x1="158.1" y1="53.9" x2="136.7" y2="44.4"/>
		<g>
			<path class="st25" d="M137.5,42.7c-0.9-0.4-2.1,0-2.5,1c-0.4,0.9,0,2.1,1,2.5c0.9,0.4,2.1,0,2.5-1
				C138.9,44.3,138.5,43.2,137.5,42.7z"/>
		</g>
	</g>
</g>
</svg>
