<?xml version="1.0" encoding="utf-8"?>
<!-- Generator: Adobe Illustrator 15.1.0, SVG Export Plug-In . SVG Version: 6.00 Build 0)  -->
<!DOCTYPE svg PUBLIC "-//W3C//DTD SVG 1.1//EN" "http://www.w3.org/Graphics/SVG/1.1/DTD/svg11.dtd">
<svg version="1.1" id="Layer_1" xmlns="http://www.w3.org/2000/svg" xmlns:xlink="http://www.w3.org/1999/xlink" x="0px" y="0px"
	 width="223px" height="187.5px" viewBox="0 0 223 187.5" enable-background="new 0 0 223 187.5" xml:space="preserve">
<g>
	<defs>
		<rect id="SVGID_1_" x="13" y="10" width="197" height="166"/>
	</defs>
	<clipPath id="SVGID_2_">
		<use xlink:href="#SVGID_1_"  overflow="visible"/>
	</clipPath>
	<g clip-path="url(#SVGID_2_)">
		<g>
			<line fill="none" stroke="#C44C18" stroke-width="2" stroke-miterlimit="10" x1="79" y1="23" x2="99.155" y2="44.364"/>
			<g>
				<polygon fill="#C44C18" points="104,49.5 94.215,45.053 98.792,43.98 100.129,39.474 				"/>
			</g>
		</g>
	</g>
	<g clip-path="url(#SVGID_2_)">
		<g>
			<line fill="none" stroke="#C44C18" stroke-width="2" stroke-miterlimit="10" x1="173" y1="99" x2="192.806" y2="125.82"/>
			<g>
				<polygon fill="#C44C18" points="197,131.5 187.819,125.911 192.492,125.396 194.359,121.082 				"/>
			</g>
		</g>
	</g>
	<g clip-path="url(#SVGID_2_)">
		<g>
			<line fill="none" stroke="#C44C18" stroke-width="2" stroke-miterlimit="10" x1="109" y1="122" x2="72.006" y2="126.624"/>
			<g>
				<polygon fill="#C44C18" points="65,127.5 74.368,122.231 72.53,126.559 75.376,130.299 				"/>
			</g>
		</g>
	</g>
	<g clip-path="url(#SVGID_2_)">
		<g>
			<line fill="none" stroke="#C44C18" stroke-width="2" stroke-miterlimit="10" x1="85" y1="156" x2="59.356" y2="162.312"/>
			<g>
				<polygon fill="#C44C18" points="52.5,164 61.189,157.675 59.869,162.187 63.132,165.568 				"/>
			</g>
		</g>
	</g>
	<g clip-path="url(#SVGID_2_)">
		<g>
			<line fill="none" stroke="#C44C18" stroke-width="2" stroke-miterlimit="10" x1="131" y1="30" x2="171.017" y2="24.04"/>
			<g>
				<polygon fill="#C44C18" points="178,23 168.758,28.487 170.494,24.118 167.561,20.445 				"/>
			</g>
		</g>
	</g>
	<g clip-path="url(#SVGID_2_)">
		<g>
			<line fill="none" stroke="#C44C18" stroke-width="2" stroke-miterlimit="10" x1="51" y1="64" x2="27.356" y2="58.186"/>
			<g>
				<polygon fill="#C44C18" points="20.5,56.5 31.132,54.928 27.869,58.312 29.191,62.823 				"/>
			</g>
		</g>
	</g>
	<g clip-path="url(#SVGID_2_)">
		<g>
			<line fill="none" stroke="#C44C18" stroke-width="2" stroke-miterlimit="10" x1="15" y1="168" x2="50.14" y2="151.065"/>
			<g>
				<polygon fill="#C44C18" points="56.5,148 49.302,155.981 49.664,151.295 45.773,148.658 				"/>
			</g>
		</g>
	</g>
	<g clip-path="url(#SVGID_2_)">
		<g>
			<line fill="none" stroke="#C44C18" stroke-width="2" stroke-miterlimit="10" x1="30" y1="31" x2="53.901" y2="17.058"/>
			<g>
				<polygon fill="#C44C18" points="60,13.5 53.455,22.025 53.445,17.324 49.358,15.002 				"/>
			</g>
		</g>
	</g>
	<g clip-path="url(#SVGID_2_)">
		<g>
			<line fill="none" stroke="#C44C18" stroke-width="2" stroke-miterlimit="10" x1="42" y1="119" x2="60.704" y2="94.604"/>
			<g>
				<polygon fill="#C44C18" points="65,89 62.173,99.369 60.383,95.022 55.721,94.423 				"/>
			</g>
		</g>
	</g>
	<g clip-path="url(#SVGID_2_)">
		<g>
			<line fill="none" stroke="#C44C18" stroke-width="2" stroke-miterlimit="10" x1="132" y1="85" x2="125.492" y2="54.901"/>
			<g>
				<polygon fill="#C44C18" points="124,48 130.076,56.865 125.604,55.417 122.13,58.583 				"/>
			</g>
		</g>
	</g>
	<g clip-path="url(#SVGID_2_)">
		<g>
			<line fill="none" stroke="#C44C18" stroke-width="2" stroke-miterlimit="10" x1="184" y1="49" x2="156.57" y2="75.586"/>
			<g>
				<polygon fill="#C44C18" points="151.5,80.5 155.814,70.656 156.949,75.219 161.473,76.494 				"/>
			</g>
		</g>
	</g>
	<g clip-path="url(#SVGID_2_)">
		<g>
			<line fill="none" stroke="#C44C18" stroke-width="2" stroke-miterlimit="10" x1="180" y1="152" x2="158.636" y2="172.155"/>
			<g>
				<polygon fill="#C44C18" points="153.5,177 157.947,167.216 159.02,171.793 163.526,173.129 				"/>
			</g>
		</g>
	</g>
	<g clip-path="url(#SVGID_2_)">
		<g>
			<line fill="none" stroke="#C44C18" stroke-width="2" stroke-miterlimit="10" x1="144" y1="143" x2="145.206" y2="114.055"/>
			<g>
				<polygon fill="#C44C18" points="145.5,107 149.147,117.109 145.184,114.582 141.024,116.771 				"/>
			</g>
		</g>
	</g>
	<g clip-path="url(#SVGID_2_)">
		<g>
			<line fill="none" stroke="#C44C18" stroke-width="2" stroke-miterlimit="10" x1="203" y1="87" x2="200.073" y2="67.979"/>
			<g>
				<polygon fill="#C44C18" points="199,61 204.531,70.215 200.154,68.5 196.496,71.452 				"/>
			</g>
		</g>
	</g>
	<g clip-path="url(#SVGID_2_)">
		<g>
			<line fill="none" stroke="#C44C18" stroke-width="2" stroke-miterlimit="10" x1="82" y1="79" x2="109.454" y2="100.631"/>
			<g>
				<polygon fill="#C44C18" points="115,105 104.669,102.036 109.04,100.304 109.7,95.65 				"/>
			</g>
		</g>
	</g>
	<circle clip-path="url(#SVGID_2_)" fill="#F7931E" stroke="#AB6615" stroke-miterlimit="10" cx="109" cy="121" r="10"/>
	<circle clip-path="url(#SVGID_2_)" fill="#F7931E" stroke="#AB6615" stroke-miterlimit="10" cx="85" cy="155" r="10"/>
	<circle clip-path="url(#SVGID_2_)" fill="#F7931E" stroke="#AB6615" stroke-miterlimit="10" cx="132" cy="84" r="10"/>
	<circle clip-path="url(#SVGID_2_)" fill="#F7931E" stroke="#AB6615" stroke-miterlimit="10" cx="144" cy="142" r="10"/>
	<circle clip-path="url(#SVGID_2_)" fill="#F7931E" stroke="#AB6615" stroke-miterlimit="10" cx="12" cy="91" r="10"/>
	<circle clip-path="url(#SVGID_2_)" fill="#F7931E" stroke="#AB6615" stroke-miterlimit="10" cx="203" cy="86" r="10"/>
	<circle clip-path="url(#SVGID_2_)" fill="#F7931E" stroke="#AB6615" stroke-miterlimit="10" cx="205" cy="173" r="10"/>
	<circle clip-path="url(#SVGID_2_)" fill="#F7931E" stroke="#AB6615" stroke-miterlimit="10" cx="120" cy="177" r="10"/>
	<circle clip-path="url(#SVGID_2_)" fill="#F7931E" stroke="#AB6615" stroke-miterlimit="10" cx="205" cy="16" r="10"/>
	<circle clip-path="url(#SVGID_2_)" fill="#F7931E" stroke="#AB6615" stroke-miterlimit="10" cx="173" cy="99" r="10"/>
	<circle clip-path="url(#SVGID_2_)" fill="#F7931E" stroke="#AB6615" stroke-miterlimit="10" cx="184" cy="48" r="10"/>
	<circle clip-path="url(#SVGID_2_)" fill="#F7931E" stroke="#AB6615" stroke-miterlimit="10" cx="180" cy="151" r="10"/>
	<circle clip-path="url(#SVGID_2_)" fill="#F7931E" stroke="#AB6615" stroke-miterlimit="10" cx="131" cy="30" r="10"/>
	<circle clip-path="url(#SVGID_2_)" fill="#F7931E" stroke="#AB6615" stroke-miterlimit="10" cx="81" cy="79" r="10"/>
	<circle clip-path="url(#SVGID_2_)" fill="#F7931E" stroke="#AB6615" stroke-miterlimit="10" cx="79" cy="23" r="10"/>
	<circle clip-path="url(#SVGID_2_)" fill="#F7931E" stroke="#AB6615" stroke-miterlimit="10" cx="51" cy="64" r="10"/>
	<circle clip-path="url(#SVGID_2_)" fill="#F7931E" stroke="#AB6615" stroke-miterlimit="10" cx="15" cy="168" r="10"/>
	<circle clip-path="url(#SVGID_2_)" fill="#F7931E" stroke="#AB6615" stroke-miterlimit="10" cx="30" cy="31" r="10"/>
	<circle clip-path="url(#SVGID_2_)" fill="#F7931E" stroke="#AB6615" stroke-miterlimit="10" cx="42" cy="119" r="10"/>
</g>
<rect x="13" y="10" fill="none" stroke="#808080" stroke-width="2" stroke-miterlimit="10" width="197" height="166"/>
</svg>
