<?xml version="1.0" encoding="utf-8"?>
<!-- Generator: Adobe Illustrator 15.1.0, SVG Export Plug-In . SVG Version: 6.00 Build 0)  -->
<!DOCTYPE svg PUBLIC "-//W3C//DTD SVG 1.1//EN" "http://www.w3.org/Graphics/SVG/1.1/DTD/svg11.dtd">
<svg version="1.1" xmlns="http://www.w3.org/2000/svg" xmlns:xlink="http://www.w3.org/1999/xlink" x="0px" y="0px"
	 width="359.339px" height="261px" viewBox="0 0 359.339 261" enable-background="new 0 0 359.339 261" xml:space="preserve">
<pattern  x="-409" y="-168" width="30" height="28" patternUnits="userSpaceOnUse" id="New_Pattern" viewBox="0 -28 30 28" overflow="visible">
	<g>
		<path fill="#8C6239" d="M13.672-21.666c0,2.209-2.09,4-4.666,4c-2.578,0-4.667-1.791-4.667-4s2.089-4,4.667-4
			C11.582-25.666,13.672-23.875,13.672-21.666z"/>
		<path fill="#8C6239" d="M27.672-8.666c0,2.209-2.09,4-4.666,4c-2.578,0-4.667-1.791-4.667-4s2.089-4,4.667-4
			C25.582-12.666,27.672-10.875,27.672-8.666z"/>
	</g>
</pattern>
<g id="Layer_1">
</g>
<g id="Layer_2">
	<g>
		<text transform="matrix(1 0 0 1 123.665 28.689)"><tspan x="0" y="0" font-family="'Helvetica'" font-size="14">non-spontaneous direction is uphill</tspan><tspan x="0" y="16.8" font-family="'Helvetica'" font-size="14">proceeds only if work is done</tspan></text>
		<path fill="#A67C52" d="M358.339,235.501c0,0-152.667,4.635-198.667-85.409c-33.724-66.013-88-83.918-157-83.091l0.667,190.681
			l353.333,1.986L358.339,235.501z"/>
		<pattern  id="SVGID_7_" xlink:href="#New_Pattern" patternTransform="matrix(1.0047 0 0 0.9948 -11.5425 -36.187)">
		</pattern>
		<path fill="url(#SVGID_7_)" d="M359.339,235.791c0,0-153.382,4.644-199.598-85.556C125.859,84.108,71.329,66.172,2.006,67.001
			l0.67,191.011l354.988,1.989L359.339,235.791z"/>
		<g>
			<g>
				<path fill="#ED1C24" d="M74.405,54.18c4.439,1.753,9.031,2.721,13.713,3.589c6.166,1.143,11.975,3.726,17.518,6.585
					c4.35,2.244,8.445,4.938,12.527,7.626c3.845,2.533,8.127,6.775,12.69,7.692c0.752,0.151,0.376-2.567,0.061-2.913
					c-3.354-3.681-8.335-6.186-12.505-8.893c-4.5-2.92-9.137-5.598-14.011-7.847c-4.107-1.895-8.516-3.293-12.915-4.306
					c-5.602-1.289-11.423-0.746-17.075-1.645C74.384,54.066,74.382,54.171,74.405,54.18L74.405,54.18z"/>
			</g>
		</g>
		<g>
			<g>
				<path fill="#ED1C24" d="M74.107,55.15c5.93,1.163,11.01,6.403,13.155,11.858c0.557,1.415,0.998-1.51,0.719-2.177
					c-2.475-5.906-7.377-10.413-13.903-10.849C73.799,53.965,73.793,55.089,74.107,55.15L74.107,55.15z"/>
			</g>
		</g>
		<g>
			<g>
				<path fill="#ED1C24" d="M74.375,54.893c6.65,2.17,16.487,1.386,22.715-1.919c0.446-0.237,0.399-2.001-0.156-2.091
					c-3.66-0.594-7.753,1.072-11.392,1.711c-3.75,0.659-7.482,0.736-11.224,0.01C73.891,52.521,73.796,54.704,74.375,54.893
					L74.375,54.893z"/>
			</g>
		</g>
<text transform="matrix(1 0 0 1 20 32)"><tspan x="0" y="0" font-size="24">–∆</tspan><tspan x="31" y="0" font-family="'Times-Italic'" font-size="24">S</tspan><tspan x="42" y="3" font-size="16">univ</tspan></text>		

<text transform="matrix(1 0 0 1 28 50)" fill="#888">
<tspan x="0" y="0" font-size="16">(+∆</tspan>
<tspan x="25" y="0" font-family="'Times-Italic'" font-size="16">G</tspan>
<tspan x="38" y="0" font-size="16">)</tspan>
</text>		

		<g>
			<path fill="#78C5EF" d="M151.33,79.496c-10.576-2.458-18.691,3.444-21.396,13.771c-3.444,13.28,1.967,20.166,15,23.363
				c10.574,2.46,26.068-3.197,26.068-16.23c-0.246-12.789-12.542-17.952-22.871-20.658"/>
			<g>
				<path d="M151.319,79.057c-13.539-2.984-22.873,7.457-22.95,20.743c-0.066,11.502,8.877,17.657,19.791,18.787
					c10.417,1.079,23.018-5.463,23.432-16.963c0.467-12.954-11.572-21.426-23.485-22.918c-0.593-0.074-0.558,1.838-0.07,2.04
					c8.949,3.71,19.857,6.233,22.124,17.321c2.438,11.919-11.485,17.734-20.967,17.643c-9.662-0.093-20.196-6.181-19.653-16.809
					c0.606-11.852,9.67-21.153,21.801-18.965C151.565,79.976,151.598,79.118,151.319,79.057L151.319,79.057z"/>
			</g>
		</g>
		<g>
			<g>
				<path d="M1.355,68.882c25.241-3.259,51.314-0.15,75.434,7.793c25.049,8.249,44.69,23.443,60.504,44.348
					c16.056,21.225,28.21,45.072,47.309,63.931c17.768,17.546,39.905,29.845,63.311,38.15c17.6,6.245,36.307,10.526,54.698,13.625
					c9.396,1.583,18.997,2.426,28.516,1.747c8.889-0.634,18.321-2.296,26.745,1.518c0.914,0.413,1.188-3.561,0.26-3.982
					c-11.39-5.168-24.672-1.174-36.688-1.479c-15.868-0.401-31.471-4.263-46.825-7.951c-25.289-6.075-49.509-14.786-71.042-29.678
					c-21.543-14.898-36.44-35.221-50.797-56.722c-13.989-20.953-28.505-41.541-50.653-54.568
					C87.4,76.954,70.72,71.978,54.033,68.778C36.83,65.479,18.664,64.31,1.312,67.125C0.861,67.198,0.986,68.93,1.355,68.882
					L1.355,68.882z"/>
			</g>
		</g>
		<g>
			<g>
				<g>
					<path d="M199.468,107.355c-2.479,6.708-6.566,12.97-7.903,20.038c-0.546,2.883-1.043,5.805-2.12,8.547
						c-1.482,3.773-5.805,1.154-8-0.333c-2.949-1.997-8.218-7.493-11.817-3.699c-3.6,3.793-4.973,9.218-6.976,13.914
						c0.484,0.258,0.97,0.517,1.454,0.774c-0.55-3.817-1.417-7.6-3.236-11.027c-1.378-2.594-5.495-6.042-8.385-3.303
						c-4.574,4.336,3.109,14.641,7.748,15.505c0.896,0.167,0.697-2.352,0.277-2.726c-1.425-1.265-10.895-9.836-5.059-10.009
						c5.194-0.154,6.496,8.884,7.023,12.577c0.106,0.749,0.912,2.037,1.454,0.774c1.786-4.157,4.358-15.949,10.577-13.571
						c3.735,1.428,8.873,8.386,13.409,6.414c3.828-1.664,4.032-7.824,4.623-11.346c1.291-7.685,5.088-14.703,7.086-22.251
						C199.649,107.54,199.552,107.128,199.468,107.355L199.468,107.355z"/>
				</g>
			</g>
			<g>
				<g>
					<path d="M188.517,136.999c-2.874,4.009-7.43,7.312-8.871,12.187c-0.525,1.776,0.075,4.098,0.79,5.728
						c0.722,1.644,1.55,3.226,2.375,4.819c1.697,3.279,1.451,7.167,1.462,10.757c0.546-0.684,1.092-1.367,1.638-2.052
						c-2.873-2.675-15.488-8.185-16.793-1.641c-1.811,9.079,12.778,8.652,17.401,4.789c0.614-0.515,0.907-3.082-0.28-3.1
						c-2.311-0.036-4.529,0.454-6.819,0.707c-1.438,0.159-2.879,0.153-4.32,0.083c-0.942-0.046-2.73-1.015-3.461-0.616
						c2.959-1.612,10.951,1.692,13.239,3.826c1.212,1.13,1.639-1.286,1.638-2.052c-0.005-6.433-0.562-10.782-3.577-16.401
						c-1.968-3.664-0.495-4.96,1.78-8.029c1.538-2.074,3.205-4.05,4.625-6.21C189.841,139.037,189.318,135.88,188.517,136.999
						L188.517,136.999z"/>
				</g>
			</g>
			<g>
				<g>
					<path d="M194.711,118.454c-1.198-1.406-3.619-0.183-5.038,0.226c-3.246,0.934-6.136,2.184-9.562,2.07
						c-8.498-0.284-12.479-11.428-17.838-16.477c-0.927-0.874-1.233,1.945-0.615,2.534c5.479,5.229,8.487,13.744,16.063,16.396
						c2.804,0.981,5.515,0.394,8.2-0.524c0.869-0.297,8.452-4.097,8.74-3.909C194.76,118.833,194.756,118.506,194.711,118.454
						L194.711,118.454z"/>
				</g>
			</g>
			<g>
				<g>
					<path d="M193.515,116.104c-5.082-2.67-10.611-4.29-15.753-6.826c-2.231-1.101-4.434-2.663-5.687-4.866
						c-0.809-1.422-0.366-4.167-0.54-5.807c-0.072-0.669-0.505-0.604-0.585,0.014c-0.524,4.046-0.785,7.652,2.192,10.753
						c5.171,5.386,13.61,6.778,20.046,10.144C194.194,120.043,194.473,116.607,193.515,116.104L193.515,116.104z"/>
				</g>
			</g>
			<g>
				<g>
					<path d="M199.411,109.661c13.83,7.636,29.267-20.361,13.318-27.701c-8.477-3.901-20.964-1.216-23.44,8.815
						c-2.102,8.513,3.471,18.315,12.933,18.34c0.71,0.002,0.6-2.11,0.076-2.362c-6.666-3.204-15.71-7.679-10.753-16.675
						c4.026-7.308,14.054-7.462,20.889-4.764c14.001,5.527-1.774,26.704-12.767,21.646
						C198.815,106.568,198.698,109.268,199.411,109.661L199.411,109.661z"/>
				</g>
			</g>
			<g>
				<g>
					<path d="M171.686,106.185c0.2-1.238,0.667-2.4,1.403-3.414c0.791-1.088,2.144-1.64,2.776-2.808
						c0.159-0.292,0.343-1.457-0.124-1.61c-1.255-0.413-2.557,1.59-3.167,2.513c-0.914,1.38-1.426,2.97-1.727,4.584
						C170.684,106.33,171.448,107.655,171.686,106.185L171.686,106.185z"/>
				</g>
			</g>
			<g>
				<g>
					<path d="M171.982,106.933c1.82-1.966,4.094-3.367,6.028-5.203c0.341-0.323,0.369-2.199-0.264-1.885
						c-2.414,1.199-4.55,3.102-6.351,5.09C170.942,105.437,171.299,107.672,171.982,106.933L171.982,106.933z"/>
				</g>
			</g>
			<g>
				<g>
					<path d="M171.344,105.358c-1.207-0.423-2.607-0.708-3.78-0.018c-0.457,0.269-0.493,2.014,0.173,2.019
						c0.552,0.003,1.102-0.175,1.66-0.2c0.644-0.028,1.245,0.037,1.875,0.175C171.808,107.452,171.866,105.542,171.344,105.358
						L171.344,105.358z"/>
				</g>
			</g>
			<g>
				<g>
					<path d="M161.553,105.349c0.433-1.954,1.078-3.917,1.202-5.921c0.019-0.302-0.235-1.634-0.615-0.832
						c-0.799,1.688-1.112,3.736-1.532,5.551c-0.116,0.505-0.105,1.226,0.231,1.655C161.18,106.236,161.483,105.66,161.553,105.349
						L161.553,105.349z"/>
				</g>
			</g>
			<g>
				<g>
					<path d="M162.201,105.653c0.942-1.676,1.966-3.289,3.063-4.868c0.224-0.322,0.022-2.025-0.326-1.673
						c-1.361,1.379-2.279,3.046-3.21,4.731c-0.234,0.425-0.237,0.985-0.116,1.446C161.669,105.505,161.961,106.08,162.201,105.653
						L162.201,105.653z"/>
				</g>
			</g>
			<g>
				<g>
					<path d="M160.578,103.811c-1.241-2.169-2.482-4.562-4.28-6.322c-0.405-0.397-0.442,1.383-0.338,1.606
						c1.083,2.302,2.619,4.366,3.854,6.589C160.504,106.926,160.945,104.452,160.578,103.811L160.578,103.811z"/>
				</g>
			</g>
			<g>
				<g>
					<path d="M160.002,105.035c-0.918,0.833-2.065,1.636-2.75,2.672c-0.26,0.394-0.414,2.455,0.459,2.118
						c0.506-0.195,0.868-0.598,1.272-0.955c0.47-0.415,0.938-0.829,1.407-1.244c0.444-0.393,0.469-1.123,0.387-1.668
						C160.747,105.754,160.437,104.64,160.002,105.035L160.002,105.035z"/>
				</g>
			</g>
			<g>
				<g>
					<path d="M191.311,96.007c2.957,6.775,12.16,8.968,18.506,5.63c0.35-0.184,0.336-1.746-0.13-1.731
						c-6.439,0.211-14.452,1.851-17.833-5.42C191.383,93.473,191.106,95.54,191.311,96.007L191.311,96.007z"/>
				</g>
			</g>
			<g>
				<g>
					<path d="M203.542,91.883c0.893,0.223,1.778,0.451,2.639,0.782c0.729,0.28,1.426,0.954,2.219,0.966
						c0.459,0.007,0.221-1.215,0.109-1.419c-0.925-1.681-3.298-1.97-5.016-2.313C203.061,89.812,202.961,91.738,203.542,91.883
						L203.542,91.883z"/>
				</g>
			</g>
			<g>
				<g>
					<path d="M194.7,90.264c0.755-0.25,1.484-0.404,2.282-0.39c0.863,0.015,1.758,0.634,2.581,0.427
						c0.555-0.139,0.436-1.526,0.149-1.854c-1.339-1.531-3.592-0.872-5.157-0.057C194.133,88.609,194.295,90.399,194.7,90.264
						L194.7,90.264z"/>
				</g>
			</g>
		</g>
		<rect x="1.5" y="1.5" fill="none" stroke="#000000" stroke-width="3" stroke-miterlimit="10" width="356" height="258"/>
	</g>
</g>
</svg>
