<?xml version="1.0" encoding="utf-8"?>
<!-- Generator: Adobe Illustrator 15.1.0, SVG Export Plug-In . SVG Version: 6.00 Build 0)  -->
<!DOCTYPE svg PUBLIC "-//W3C//DTD SVG 1.1//EN" "http://www.w3.org/Graphics/SVG/1.1/DTD/svg11.dtd">
<svg version="1.1" xmlns="http://www.w3.org/2000/svg" xmlns:xlink="http://www.w3.org/1999/xlink" x="0px" y="0px" width="359px"
	 height="261px" viewBox="0 0 359 261" enable-background="new 0 0 359 261" xml:space="preserve">
<pattern  x="-40" y="-168" width="30" height="28" patternUnits="userSpaceOnUse" id="New_Pattern" viewBox="0 -28 30 28" overflow="visible">
	<g>
		<path fill="#8C6239" d="M13.672-21.666c0,2.209-2.09,4-4.666,4c-2.578,0-4.667-1.791-4.667-4s2.089-4,4.667-4
			C11.582-25.666,13.672-23.875,13.672-21.666z"/>
		<path fill="#8C6239" d="M27.672-8.666c0,2.209-2.09,4-4.666,4c-2.578,0-4.667-1.791-4.667-4s2.089-4,4.667-4
			C25.582-12.666,27.672-10.875,27.672-8.666z"/>
	</g>
</pattern>
<g id="Layer_1">
</g>
<g id="Layer_2">
	<g>
		<text transform="matrix(1 0 0 1 121.3315 28.6899)"><tspan x="0" y="0" font-family="'Helvetica'" font-size="14">spontaneous direction is downhill</tspan><tspan x="0" y="16.8" font-family="'Helvetica'" font-size="14">proceeds unaided</tspan></text>
		<path fill="#A67C52" d="M357.339,235.501c0,0-152.667,4.635-198.667-85.409c-33.724-66.013-88-83.918-157-83.091l0.667,190.681
			l353.333,1.986L357.339,235.501z"/>
		<pattern  id="SVGID_7_" xlink:href="#New_Pattern" patternTransform="matrix(1.0047 0 0 0.9948 12.0122 -36.1865)">
		</pattern>
		<path fill="url(#SVGID_7_)" d="M358.339,235.791c0,0-153.382,4.644-199.598-85.556C124.859,84.108,70.329,66.172,1.006,67.001
			l0.67,191.011l354.988,1.989L358.339,235.791z"/>
		<g>
			<g>
				<g>
					<path fill="#ED1C24" d="M173.809,138.013c5.482,9.521,12.841,17.736,21.083,24.951c7.626,6.677,16.737,13.108,26.499,16.166
						c0.738,0.231,1.071-3.805,0.097-4.204c-18.983-7.79-36.556-21.979-47.287-39.604
						C173.747,134.575,173.469,137.424,173.809,138.013L173.809,138.013z"/>
				</g>
			</g>
			<g>
				<g>
					<path fill="#ED1C24" d="M212.162,166.347c2.289,4.849,5.425,8.977,9.037,12.902c0.03-1.299,0.061-2.598,0.091-3.896
						c-5.172-1.025-10.488-2.193-15.781-2.198c-1.065-0.001-1.027,4.216,0.104,4.256c5.33,0.188,10.479,1.461,15.774,1.903
						c1.099,0.093,0.626-3.415,0.091-3.896c-3.57-3.202-6.124-7.228-8.994-11.02C211.997,163.756,211.991,165.986,212.162,166.347
						L212.162,166.347z"/>
				</g>
			</g>
		</g>
<text transform="matrix(1 0 0 1 20 32)"><tspan x="0" y="0" font-size="24">+∆</tspan><tspan x="31" y="0" font-family="'Times-Italic'" font-size="24">S</tspan><tspan x="42" y="3" font-size="16">univ</tspan></text>		

<text transform="matrix(1 0 0 1 32 50)" fill="#888">
<tspan x="0" y="0" font-size="16">(-∆</tspan>
<tspan x="21" y="0" font-family="'Times-Italic'" font-size="16">G</tspan>
<tspan x="35" y="0" font-size="16">)</tspan>
</text>		

		<g>
			<g>
				<path d="M333.001,231.022c0.013,0,0.013-0.039-0.001-0.039C332.987,230.983,332.988,231.022,333.001,231.022L333.001,231.022z"
					/>
			</g>
		</g>
		<g>
			<path fill="#78C5EF" d="M161.33,94.496c-10.576-2.458-18.691,3.444-21.396,13.771c-3.444,13.28,1.967,20.166,15,23.363
				c10.574,2.46,26.068-3.197,26.068-16.23c-0.246-12.789-12.542-17.952-22.871-20.658"/>
			<g>
				<path d="M161.319,94.057c-13.54-2.984-22.873,7.457-22.95,20.743c-0.067,11.502,8.877,17.658,19.791,18.788
					c10.417,1.078,23.017-5.463,23.431-16.964c0.467-12.954-11.572-21.426-23.485-22.918c-0.593-0.074-0.558,1.838-0.07,2.04
					c8.949,3.71,19.857,6.233,22.124,17.321c2.437,11.919-11.486,17.734-20.966,17.643c-9.663-0.093-20.197-6.181-19.654-16.809
					c0.606-11.852,9.669-21.153,21.801-18.965C161.565,94.976,161.598,94.118,161.319,94.057L161.319,94.057z"/>
			</g>
		</g>
		<g>
			<g>
				<path d="M0.355,68.882c25.241-3.259,51.314-0.15,75.434,7.793c25.048,8.249,44.689,23.443,60.503,44.348
					c16.056,21.225,28.21,45.072,47.309,63.931c17.769,17.546,39.906,29.845,63.311,38.15c17.6,6.245,36.308,10.526,54.699,13.625
					c9.396,1.583,18.996,2.426,28.515,1.747c8.888-0.634,18.321-2.296,26.745,1.518c0.914,0.413,1.188-3.561,0.26-3.982
					c-11.39-5.168-24.672-1.174-36.689-1.479c-15.868-0.401-31.47-4.263-46.825-7.951c-25.289-6.075-49.509-14.786-71.041-29.678
					c-21.543-14.898-36.441-35.221-50.797-56.722c-13.99-20.953-28.506-41.541-50.654-54.568
					C86.401,76.954,69.72,71.978,53.034,68.778c-17.204-3.299-35.37-4.468-52.721-1.653C-0.138,67.198-0.014,68.93,0.355,68.882
					L0.355,68.882z"/>
			</g>
		</g>
		<g>
			<g>
				<g>
					<path d="M325.947,129.137c-14.509-0.7-19.03,26.344-4.199,29.709c9.481,2.15,19.73-2.419,21.417-12.381
						c1.578-9.319-8.596-18.312-17.546-16.594c-0.642,0.124-0.7,1.927-0.084,2.091c7.031,1.869,19.141,6.042,15.019,16.234
						c-2.625,6.49-11.803,7.579-17.762,7.075c-15.438-1.304-7.537-22.392,3.182-25.059
						C326.304,130.131,326.303,129.154,325.947,129.137L325.947,129.137z"/>
				</g>
			</g>
			<g>
				<g>
					<path d="M336.509,143.439c-2.993,2.651-6.169,4.004-10.198,3.819c-4.072-0.186-6.938-2.87-10.611-4.042
						c-0.997-0.317-0.774,1.949-0.41,2.386c5.668,6.801,16.265,6.535,21.643-0.206C337.242,145.01,337.028,142.979,336.509,143.439
						L336.509,143.439z"/>
				</g>
			</g>
			<g>
				<g>
					<path d="M323.238,135.894c-0.499,0.186-1.065,0.419-1.347,0.902c-0.532,0.913-0.468,2.03-0.085,2.985
						c0.267,0.663,1.066,0.747,1.361,0.063c0.203-0.47,0.112-0.969,0-1.446c-0.047-0.202-0.134-0.414-0.213-0.602
						c0.04,0.096,0.038,0.084-0.008-0.037c0.04,0.245,0.051,0.29,0.033,0.136c0.007,0.29,0.014,0.58,0.021,0.87
						c-0.027,0.443-0.27,0.624,0.014,0.289c0.168-0.199,0.417-0.344,0.63-0.487C324.306,138.123,324.241,135.52,323.238,135.894
						L323.238,135.894z"/>
				</g>
			</g>
			<g>
				<g>
					<path d="M328.549,138.234c0.223,0.202,0.489,0.429,0.647,0.688c0.005,0.01,0.189,0.408,0.104,0.158
						c0.086-1.117,0.07-1.446-0.047-0.986c0.053-0.14,0.046-0.13-0.021,0.028c-0.403,0.898-0.648,2.243,0.243,2.961
						c0.205,0.165,0.437-0.036,0.562-0.178c0.779-0.876,0.833-2.283,0.501-3.358c-0.281-0.909-0.871-1.318-1.775-1.472
						c-0.347-0.06-0.472,0.661-0.492,0.86C328.235,137.302,328.245,137.957,328.549,138.234L328.549,138.234z"/>
				</g>
			</g>
			<g>
				<g>
					<path d="M325.788,157.103c-2.02,1.916-1.875,6.331-2.195,8.903c-0.906,7.277-1.657,14.527-2.844,21.773
						c-2.306,14.066-5.409,28.371-5.061,42.683c0.595-0.813,1.189-1.627,1.784-2.439c-6.386-1.562-14.484-2.95-19.663,2.137
						c-0.856,0.842-1.05,3.521,0.434,3.925c6.191,1.689,14.237,1.956,20.152-0.798c1.07-0.498,0.97-3.179-0.349-3.267
						c-6.59-0.441-12.479,1.718-19.154-0.104c0.145,1.308,0.289,2.616,0.434,3.925c4.511-4.47,12.1-2.721,17.489-1.012
						c1.365,0.434,1.797-1.472,1.784-2.439c-0.181-12.916,2.44-25.892,4.248-38.639c0.878-6.191,1.78-12.36,2.344-18.59
						c0.426-4.702,0.438-9.545,1.246-14.204C326.469,158.772,326.387,156.533,325.788,157.103L325.788,157.103z"/>
				</g>
			</g>
			<g>
				<g>
					<path d="M320.069,196.172c3.11,12.476,6.984,25.481,4.296,38.397c-0.178,0.855,0.13,2.873,1.334,2.875
						c4.093,0.009,15.001,1.389,13.798-5.605c-0.881-5.128-12.068-2.375-14.582-0.051c-0.53,0.489-0.544,2.512,0.446,2.509
						c3.621-0.01,7.02-1.81,10.776-1.615c2.144,0.11,0.732-0.228-0.467,0.075c-1.324,0.333-2.766,0.31-4.12,0.334
						c-1.991,0.037-3.978-0.165-5.965-0.238c0.445,0.958,0.89,1.917,1.334,2.875c2.574-14.114-1.528-28.021-5.149-41.571
						C321.11,191.672,319.729,194.807,320.069,196.172L320.069,196.172z"/>
				</g>
			</g>
			<g>
				<g>
					<path d="M323.338,164.861c-4.875,3.485-10.755,7.522-12.655,13.494c-1.977,6.215,4.716,10.676,9.365,12.972
						c-0.122-1.349-0.244-2.697-0.365-4.047c-2.218,2.026-3.578,4.181-4.154,7.143c-0.284,1.46,1.248,4.894,1.97,2.111
						c0.605-2.33,1.697-3.818,3.402-5.451c0.827-0.791,0.766-3.507-0.365-4.047c-4.742-2.266-9.847-5.44-5.619-10.899
						c2.722-3.514,6.327-6.137,8.702-9.938C323.753,165.981,323.777,164.547,323.338,164.861L323.338,164.861z"/>
				</g>
			</g>
			<g>
				<g>
					<path d="M323.72,167.151c1.755,2.848,3.818,5.503,5.337,8.49c1.946,3.829-2.954,5.834-4.283,8.45
						c-1.639,3.226,0.12,6.893,2.408,9.292c1.056,1.106,1.113-1.961,0.864-2.496c-0.277-0.598-2.291-3.497-1.656-4.345
						c0.945-1.262,2.18-2.365,3.199-3.571c1.175-1.392,1.808-3.269,1.763-5.088c-0.133-5.398-4.221-9.579-6.931-13.9
						C323.707,162.844,323.204,166.314,323.72,167.151L323.72,167.151z"/>
				</g>
			</g>
		</g>
		<rect x="1.5" y="1.5" fill="none" stroke="#000000" stroke-width="3" stroke-miterlimit="10" width="356" height="258"/>
	</g>
</g>
</svg>
