<?xml version="1.0" encoding="utf-8"?>
<!-- Generator: Adobe Illustrator 15.1.0, SVG Export Plug-In . SVG Version: 6.00 Build 0)  -->
<!DOCTYPE svg PUBLIC "-//W3C//DTD SVG 1.1//EN" "http://www.w3.org/Graphics/SVG/1.1/DTD/svg11.dtd">
<svg version="1.1" id="Layer_1" xmlns="http://www.w3.org/2000/svg" xmlns:xlink="http://www.w3.org/1999/xlink" x="0px" y="0px"
	 width="199px" height="168px" viewBox="0 0 199 168" enable-background="new 0 0 199 168" xml:space="preserve">
<g>
	<defs>
		<rect id="SVGID_1_" x="1" y="1" width="197" height="166"/>
	</defs>
	<clipPath id="SVGID_2_">
		<use xlink:href="#SVGID_1_"  overflow="visible"/>
	</clipPath>
	<g clip-path="url(#SVGID_2_)">
		<g>
			<line fill="none" stroke="#C44C18" stroke-width="2" stroke-miterlimit="10" x1="58" y1="17" x2="87.615" y2="47.902"/>
			<g>
				<polygon fill="#C44C18" points="92.5,53 82.681,48.63 87.25,47.521 88.551,43.004 				"/>
			</g>
		</g>
	</g>
	<g clip-path="url(#SVGID_2_)">
		<g>
			<line fill="none" stroke="#C44C18" stroke-width="2" stroke-miterlimit="10" x1="172" y1="85" x2="188.734" y2="103.291"/>
			<g>
				<polygon fill="#C44C18" points="193.5,108.5 183.784,103.903 188.378,102.901 189.783,98.416 				"/>
			</g>
		</g>
	</g>
	<g clip-path="url(#SVGID_2_)">
		<g>
			<line fill="none" stroke="#C44C18" stroke-width="2" stroke-miterlimit="10" x1="85" y1="134" x2="107.597" y2="157.419"/>
			<g>
				<polygon fill="#C44C18" points="112.5,162.5 102.666,158.163 107.231,157.039 108.517,152.519 				"/>
			</g>
		</g>
	</g>
	<g clip-path="url(#SVGID_2_)">
		<g>
			<line fill="none" stroke="#C44C18" stroke-width="2" stroke-miterlimit="10" x1="104" y1="20" x2="135.076" y2="51.939"/>
			<g>
				<polygon fill="#C44C18" points="140,57 130.148,52.704 134.708,51.561 135.975,47.035 				"/>
			</g>
		</g>
	</g>
	<g clip-path="url(#SVGID_2_)">
		<g>
			<line fill="none" stroke="#C44C18" stroke-width="2" stroke-miterlimit="10" x1="137" y1="3" x2="168.076" y2="34.939"/>
			<g>
				<polygon fill="#C44C18" points="173,40 163.148,35.704 167.708,34.561 168.975,30.035 				"/>
			</g>
		</g>
	</g>
	<g clip-path="url(#SVGID_2_)">
		<g>
			<line fill="none" stroke="#C44C18" stroke-width="2" stroke-miterlimit="10" x1="18" y1="65" x2="49.11" y2="97.406"/>
			<g>
				<polygon fill="#C44C18" points="54,102.5 44.177,98.139 48.745,97.025 50.042,92.508 				"/>
			</g>
		</g>
	</g>
	<g clip-path="url(#SVGID_2_)">
		<g>
			<line fill="none" stroke="#C44C18" stroke-width="2" stroke-miterlimit="10" x1="-1.5" y1="91" x2="12.395" y2="107.148"/>
			<g>
				<polygon fill="#C44C18" points="17,112.5 7.429,107.61 12.051,106.748 13.592,102.308 				"/>
			</g>
		</g>
	</g>
	
		<line clip-path="url(#SVGID_2_)" fill="none" stroke="#C44C18" stroke-width="2" stroke-miterlimit="10" x1="3" y1="143" x2="30" y2="172"/>
	
		<line clip-path="url(#SVGID_2_)" fill="none" stroke="#C44C18" stroke-width="2" stroke-miterlimit="10" x1="178" y1="133" x2="201.5" y2="157"/>
	<g clip-path="url(#SVGID_2_)">
		<g>
			<line fill="none" stroke="#C44C18" stroke-width="2" stroke-miterlimit="10" x1="32" y1="128" x2="55.007" y2="151.008"/>
			<g>
				<polygon fill="#C44C18" points="60,156 50.09,151.84 54.634,150.634 55.839,146.091 				"/>
			</g>
		</g>
	</g>
	<g clip-path="url(#SVGID_2_)">
		<g>
			<line fill="none" stroke="#C44C18" stroke-width="2" stroke-miterlimit="10" x1="120" y1="72" x2="149.615" y2="102.902"/>
			<g>
				<polygon fill="#C44C18" points="154.5,108 144.681,103.63 149.25,102.521 150.551,98.005 				"/>
			</g>
		</g>
	</g>
	<g clip-path="url(#SVGID_2_)">
		<g>
			<line fill="none" stroke="#C44C18" stroke-width="2" stroke-miterlimit="10" x1="157" y1="51" x2="169.223" y2="64.301"/>
			<g>
				<polygon fill="#C44C18" points="174,69.5 164.274,64.925 168.865,63.913 170.261,59.424 				"/>
			</g>
		</g>
	</g>
	<g clip-path="url(#SVGID_2_)">
		<g>
			<line fill="none" stroke="#C44C18" stroke-width="2" stroke-miterlimit="10" x1="138" y1="129" x2="154.734" y2="147.291"/>
			<g>
				<polygon fill="#C44C18" points="159.5,152.5 149.784,147.903 154.378,146.901 155.783,142.416 				"/>
			</g>
		</g>
	</g>
	<g clip-path="url(#SVGID_2_)">
		<g>
			<line fill="none" stroke="#C44C18" stroke-width="2" stroke-miterlimit="10" x1="74" y1="83" x2="103.788" y2="116.242"/>
			<g>
				<polygon fill="#C44C18" points="108.5,121.5 98.833,116.804 103.436,115.849 104.887,111.378 				"/>
			</g>
		</g>
	</g>
	<g clip-path="url(#SVGID_2_)">
		<g>
			<line fill="none" stroke="#C44C18" stroke-width="2" stroke-miterlimit="10" x1="7" y1="7" x2="36.788" y2="40.242"/>
			<g>
				<polygon fill="#C44C18" points="41.5,45.5 31.833,40.804 36.436,39.849 37.887,35.378 				"/>
			</g>
		</g>
	</g>
	<circle clip-path="url(#SVGID_2_)" fill="#F7931E" stroke="#AB6615" stroke-miterlimit="10" cx="85" cy="133" r="10"/>
	<circle clip-path="url(#SVGID_2_)" fill="#F7931E" stroke="#AB6615" stroke-miterlimit="10" cx="119" cy="71" r="10"/>
	<circle clip-path="url(#SVGID_2_)" fill="#F7931E" stroke="#AB6615" stroke-miterlimit="10" cx="138" cy="128" r="10"/>
	<circle clip-path="url(#SVGID_2_)" fill="#F7931E" stroke="#AB6615" stroke-miterlimit="10" cx="172" cy="85" r="10"/>
	<circle clip-path="url(#SVGID_2_)" fill="#F7931E" stroke="#AB6615" stroke-miterlimit="10" cx="196" cy="57" r="10"/>
	<circle clip-path="url(#SVGID_2_)" fill="#F7931E" stroke="#AB6615" stroke-miterlimit="10" cx="191" cy="4" r="10"/>
	<circle clip-path="url(#SVGID_2_)" fill="#F7931E" stroke="#AB6615" stroke-miterlimit="10" cx="157" cy="50" r="10"/>
	<circle clip-path="url(#SVGID_2_)" fill="#F7931E" stroke="#AB6615" stroke-miterlimit="10" cx="104" cy="20" r="10"/>
	<circle clip-path="url(#SVGID_2_)" fill="#F7931E" stroke="#AB6615" stroke-miterlimit="10" cx="137" cy="3" r="10"/>
	<circle clip-path="url(#SVGID_2_)" fill="#F7931E" stroke="#AB6615" stroke-miterlimit="10" cx="73" cy="83" r="10"/>
	<circle clip-path="url(#SVGID_2_)" fill="#F7931E" stroke="#AB6615" stroke-miterlimit="10" cx="6" cy="7" r="10"/>
	<circle clip-path="url(#SVGID_2_)" fill="#F7931E" stroke="#AB6615" stroke-miterlimit="10" cx="58" cy="17" r="10"/>
	<circle clip-path="url(#SVGID_2_)" fill="#F7931E" stroke="#AB6615" stroke-miterlimit="10" cx="18" cy="65" r="10"/>
	<circle clip-path="url(#SVGID_2_)" fill="#F7931E" stroke="#AB6615" stroke-miterlimit="10" cx="3" cy="143" r="10"/>
	<circle clip-path="url(#SVGID_2_)" fill="#F7931E" stroke="#AB6615" stroke-miterlimit="10" cx="133" cy="164" r="10"/>
	<circle clip-path="url(#SVGID_2_)" fill="#F7931E" stroke="#AB6615" stroke-miterlimit="10" cx="178" cy="133" r="10"/>
	<circle clip-path="url(#SVGID_2_)" fill="#F7931E" stroke="#AB6615" stroke-miterlimit="10" cx="32" cy="128" r="10"/>
</g>
<rect x="1" y="1" fill="none" stroke="#808080" stroke-width="2" stroke-miterlimit="10" width="197" height="166"/>
</svg>
