<?xml version="1.0" encoding="utf-8"?>
<!-- Generator: Adobe Illustrator 15.1.0, SVG Export Plug-In . SVG Version: 6.00 Build 0)  -->
<!DOCTYPE svg PUBLIC "-//W3C//DTD SVG 1.1//EN" "http://www.w3.org/Graphics/SVG/1.1/DTD/svg11.dtd">
<svg version="1.1" id="Layer_1" xmlns="http://www.w3.org/2000/svg" xmlns:xlink="http://www.w3.org/1999/xlink" x="0px" y="0px"
	 width="547px" height="555px" viewBox="0 0 547 555" enable-background="new 0 0 547 555" xml:space="preserve">
<g id="Layer_3">
	<path fill="#D2FFDE" d="M115.333,432.333c34.167-11.666,85.5-45.833,107.167-100l0.417,0.5
		c155.017-47.483,213.572-153.001,260.622-229.667L519,48v386L115.333,432.333z"/>
	<path fill="#D2EBFF" d="M174.499,49.333c-0.502,13.472,44.332,266.5,48.499,284c144.167-40,213.617-151.501,260.667-228.167L521,48
		L174.499,49.333z"/>
	<path fill="#9FDEFF" d="M175.249,47.333c-0.502,13.472,42.936,275.125,48.46,285.833l-0.771-0.834
		c-21.667,54.167-72.969,88.334-107.135,100L99,434V48l75.249,1.333"/>
</g>
<g id="Layer_2">
	<rect x="216.792" y="446.172" fill="none" width="67.083" height="17.5"/>
	<text transform="matrix(1 0 0 1 216.7925 461.627)" font-family="'Helvetica'" font-size="18">0.01</text>
	<rect x="255.964" y="477.5" fill="none" width="158.749" height="20.992"/>
	<text transform="matrix(1 0 0 1 255.9629 494.6709)" font-family="'Helvetica'" font-size="20">Temperature (°C)</text>
	<rect x="277.629" y="159.833" fill="none" width="74.582" height="20.992"/>
	<text transform="matrix(1 0 0 1 277.6289 177.0059)" font-family="'Helvetica'" font-size="20">water</text>
	<rect x="405.128" y="277.333" fill="none" width="60.371" height="25.833"/>
	<text transform="matrix(1 0 0 1 405.1279 294.5059)" font-family="'Helvetica'" font-size="20">steam</text>
	<rect x="130.962" y="180.667" fill="none" width="45.416" height="20.993"/>
	<text transform="matrix(1 0 0 1 130.9619 197.8398)" font-family="'Helvetica'" font-size="20">ice</text>
	<rect x="248.462" y="339.834" fill="none" width="121.037" height="26.666"/>
	<text transform="matrix(1 0 0 1 248.4619 357.0068)" font-family="'Helvetica'" font-size="20">water vapor</text>
	<rect x="368.768" y="446.172" fill="none" width="32.398" height="20.833"/>
	<text transform="matrix(1 0 0 1 368.7666 461.627)" font-family="'Helvetica'" font-size="18">100</text>
	<rect x="51.625" y="94.417" fill="none" width="32.399" height="20.833"/>
	<text transform="matrix(1 0 0 1 51.6265 109.873)" font-family="'Helvetica'" font-size="18">218</text>
	<rect x="71.793" y="227.751" fill="none" width="17.867" height="19.582"/>
	<text transform="matrix(1 0 0 1 71.7939 243.2061)" font-family="'Helvetica'" font-size="18">1</text>
	<rect x="37.124" y="323.583" fill="none" width="49.899" height="20.833"/>
	<text transform="matrix(1 0 0 1 37.125 339.0391)" font-family="'Helvetica'" font-size="18">0.006</text>
	<rect x="469.291" y="446.172" fill="none" width="32.083" height="20.992"/>
	<text transform="matrix(1 0 0 1 469.292 461.627)" font-family="'Helvetica'" font-size="18">374</text>
	<rect x="22.376" y="151.451" fill="none" width="46.248" height="100.417"/>
	<text transform="matrix(0 -1 1 0 39.5498 251.8691)" font-family="'Helvetica-Oblique'" font-size="20" letter-spacing="-4">P</text>
	<text transform="matrix(0 -1 1 0 45.5498 242.5293)" font-family="'Helvetica'" font-size="16">vap</text>
	<text transform="matrix(0 -1 1 0 39.5498 216.7324)" font-family="'Helvetica'" font-size="20"> (atm)</text>
	<g>
		<g>
			<path fill="none" stroke="#0000FF" stroke-width="2.6505" stroke-miterlimit="10" d="M222.833,333.167
				c-5.026-9.743-41.342-227.267-47.464-276.519"/>
			<g>
				<polygon fill="#0000FF" points="174.499,47.333 181.17,59.918 175.498,57.34 170.45,60.989 				"/>
			</g>
		</g>
	</g>
	<path fill="none" stroke="#0000FF" stroke-width="2.6573" stroke-miterlimit="10" d="M115.333,432.333
		c34.167-11.666,85-45.833,106.667-100"/>
	<path fill="none" stroke="#0000FF" stroke-width="3.3984" stroke-miterlimit="10" d="M222.167,332.833
		c155.017-47.483,214.447-153.001,261.497-229.667"/>
	<rect x="99" y="48" fill="none" stroke="#000000" stroke-width="2" stroke-miterlimit="10" width="421" height="386"/>
	<rect x="468.667" y="533.334" fill="none" width="75" height="21.666"/>
	<text transform="matrix(1 0 0 1 468.667 547.9199)" font-family="'Helvetica'" font-size="10">© mccord 2013</text>
</g>
<g id="Layer_4">
	<g>
		<g>
			<line fill="none" stroke="#00A99D" stroke-miterlimit="10" x1="99" y1="332.5" x2="102" y2="332.5"/>
			<line fill="none" stroke="#00A99D" stroke-miterlimit="10" stroke-dasharray="5,5" x1="107" y1="332.5" x2="218" y2="332.5"/>
			<polyline fill="none" stroke="#00A99D" stroke-miterlimit="10" points="220,332.5 222.5,332.5 222.5,335 			"/>
			<line fill="none" stroke="#00A99D" stroke-miterlimit="10" stroke-dasharray="5,5" x1="222.5" y1="339" x2="222.5" y2="429"/>
			<line fill="none" stroke="#00A99D" stroke-miterlimit="10" x1="222.5" y1="432" x2="222.5" y2="434"/>
		</g>
	</g>
	<g>
		<g>
			<line fill="none" stroke="#00A99D" stroke-miterlimit="10" x1="99" y1="237.5" x2="101" y2="237.5"/>
			<line fill="none" stroke="#00A99D" stroke-miterlimit="10" stroke-dasharray="5,5" x1="106" y1="237.5" x2="379" y2="237.5"/>
			<polyline fill="none" stroke="#00A99D" stroke-miterlimit="10" points="381,237.5 383.5,237.5 383.5,240 			"/>
			<line fill="none" stroke="#00A99D" stroke-miterlimit="10" stroke-dasharray="5,5" x1="383.5" y1="245" x2="383.5" y2="429"/>
			<line fill="none" stroke="#00A99D" stroke-miterlimit="10" x1="383.5" y1="431" x2="383.5" y2="434"/>
		</g>
	</g>
	<g>
		<g>
			<line fill="none" stroke="#00A99D" stroke-miterlimit="10" x1="99" y1="103.5" x2="101" y2="103.5"/>
			<line fill="none" stroke="#00A99D" stroke-miterlimit="10" stroke-dasharray="5,5" x1="106" y1="103.5" x2="479" y2="103.5"/>
			<polyline fill="none" stroke="#00A99D" stroke-miterlimit="10" points="481,103.5 483.5,103.5 483.5,106 			"/>
			<line fill="none" stroke="#00A99D" stroke-miterlimit="10" stroke-dasharray="5,5" x1="483.5" y1="111" x2="483.5" y2="430"/>
			<line fill="none" stroke="#00A99D" stroke-miterlimit="10" x1="483.5" y1="432" x2="483.5" y2="435"/>
		</g>
	</g>
	<circle fill="#00FFFF" stroke="#666666" stroke-miterlimit="10" cx="204.5" cy="237.5" r="4.167"/>
	<circle fill="#ED1C24" stroke="#666666" stroke-miterlimit="10" cx="382.5" cy="239.5" r="4.167"/>
	<circle fill="#FFFF00" stroke="#666666" stroke-miterlimit="10" cx="483.5" cy="103.5" r="4.167"/>
	<circle fill="#22B573" stroke="#666666" stroke-miterlimit="10" cx="222.5" cy="331.5" r="4.167"/>
	<line fill="none" stroke="#000000" stroke-width="3" stroke-miterlimit="10" x1="85" y1="103.5" x2="99" y2="103.5"/>
	<line fill="none" stroke="#000000" stroke-width="3" stroke-miterlimit="10" x1="85" y1="237.5" x2="99" y2="237.5"/>
	<line fill="none" stroke="#000000" stroke-width="3" stroke-miterlimit="10" x1="85" y1="331.5" x2="99" y2="331.5"/>
	<line fill="none" stroke="#000000" stroke-width="3" stroke-miterlimit="10" x1="222.5" y1="435" x2="222.5" y2="444"/>
	<line fill="none" stroke="#000000" stroke-width="3" stroke-miterlimit="10" x1="383.5" y1="435" x2="383.5" y2="444"/>
	<line fill="none" stroke="#000000" stroke-width="3" stroke-miterlimit="10" x1="483.5" y1="435" x2="483.5" y2="444"/>
	<g>
		<path fill="#E6E6E6" stroke="#666666" stroke-miterlimit="10" d="M189.5,530.5c0,6.627-5.373,12-12,12h-120
			c-6.627,0-12-5.373-12-12v-54c0-6.627,5.373-12,12-12h120c6.627,0,12,5.373,12,12V530.5z"/>
		<circle fill="#00FFFF" stroke="#666666" stroke-miterlimit="10" cx="60.5" cy="477.5" r="4.167"/>
		<circle fill="#ED1C24" stroke="#666666" stroke-miterlimit="10" cx="60.5" cy="494.5" r="4.167"/>
		<circle fill="#FFFF00" stroke="#666666" stroke-miterlimit="10" cx="60.5" cy="529.5" r="4.167"/>
		<circle fill="#22B573" stroke="#666666" stroke-miterlimit="10" cx="60.5" cy="512.167" r="4.167"/>
		<rect x="67.832" y="464.335" fill="none" width="131" height="73.333"/>
		<text transform="matrix(1 0 0 1 67.8325 480.6387)" font-family="'Helvetica'" font-size="12">normal freezing point</text>
		<text transform="matrix(1 0 0 1 67.8325 498.0391)" font-family="'Helvetica'" font-size="12">normal boiling point</text>
		<text transform="matrix(1 0 0 1 67.8325 515.4385)" font-family="'Helvetica'" font-size="12">triple point</text>
		<text transform="matrix(1 0 0 1 67.8325 532.8389)" font-family="'Helvetica'" font-size="12">critical point</text>
	</g>
	<rect x="13.332" y="8.667" fill="none" width="309.668" height="29.167"/>
	<text transform="matrix(1 0 0 1 13.332 29.3037)" font-family="'Helvetica-Bold'" font-size="24">Phase Diagram for Water</text>
	<path fill="none" stroke="#808080" stroke-miterlimit="10" d="M546.5,542.5c0,6.627-5.373,12-12,12h-522c-6.627,0-12-5.373-12-12
		v-530c0-6.627,5.373-12,12-12h522c6.627,0,12,5.373,12,12V542.5z"/>
</g>
</svg>
